<?xml version="1.0" standalone="no"?>
<!DOCTYPE svg PUBLIC "-//W3C//DTD SVG 20010904//EN"
 "http://www.w3.org/TR/2001/REC-SVG-20010904/DTD/svg10.dtd">
<svg version="1.0" xmlns="http://www.w3.org/2000/svg"
 width="16.000000pt" height="16.000000pt" viewBox="0 0 16.000000 16.000000"
 preserveAspectRatio="xMidYMid meet">
<metadata>
Created by potrace 1.11, written by Peter Selinger 2001-2013
</metadata>
<g transform="translate(0.000000,16.000000) scale(0.002406,-0.002406)"
fill="#000000" stroke="none">
<path d="M2135 6638 c-6 -15 -64 -240 -71 -273 -2 -11 -17 -74 -34 -140 -17
-66 -37 -145 -44 -175 -52 -216 -96 -374 -107 -380 -6 -5 -37 -11 -68 -15 -30
-4 -62 -8 -71 -10 -8 -1 -36 -5 -61 -9 -25 -4 -57 -9 -70 -11 -13 -2 -40 -6
-59 -9 -48 -6 -133 -20 -142 -22 -5 -1 -15 -2 -23 -3 -14 -1 -14 -49 -1 -216
1 -22 19 -25 76 -14 19 4 58 10 85 14 28 3 77 10 110 15 33 5 78 12 100 15 22
3 46 8 53 10 18 6 16 -6 -39 -221 -28 -109 -52 -206 -54 -214 -39 -171 -65
-261 -73 -256 -4 2 -70 11 -147 21 -77 9 -156 18 -175 20 -19 3 -54 7 -77 11
-38 6 -43 4 -47 -17 -50 -219 -51 -218 9 -220 17 0 39 -2 50 -5 11 -2 38 -6
60 -8 198 -22 261 -30 268 -36 7 -6 -75 -339 -304 -1240 -39 -151 -72 -284
-75 -295 -2 -11 -51 -209 -110 -440 -58 -231 -108 -427 -109 -435 -2 -8 -45
-177 -95 -375 -50 -198 -152 -601 -226 -895 -74 -294 -137 -542 -140 -552 -5
-16 25 -31 82 -42 10 -2 46 -11 79 -20 33 -8 62 -12 66 -8 5 6 33 105 44 157
2 11 16 65 30 120 15 55 28 107 30 116 4 18 86 343 255 1014 270 1068 462
1831 465 1845 2 8 8 35 15 60 7 25 14 52 15 60 2 8 38 150 80 315 42 165 78
307 80 315 2 8 18 73 36 144 l32 128 56 -6 c31 -3 92 -10 136 -16 44 -5 103
-12 130 -15 82 -9 129 -15 155 -20 14 -2 52 -7 85 -10 33 -3 74 -8 90 -10 17
-2 53 -7 80 -10 28 -3 86 -10 130 -16 133 -16 148 -18 200 -24 28 -3 61 -7 75
-10 14 -2 52 -7 85 -10 33 -3 71 -8 85 -10 14 -2 48 -7 75 -10 28 -3 88 -10
135 -16 47 -5 105 -12 130 -15 58 -7 118 -14 150 -19 14 -2 52 -6 85 -10 33
-3 76 -8 95 -10 19 -2 91 -11 160 -20 167 -21 204 -26 208 -30 3 -3 25 -151
37 -250 3 -22 8 -60 11 -85 3 -25 7 -56 10 -70 2 -14 6 -49 10 -78 3 -29 7
-63 9 -74 3 -12 7 -44 10 -72 3 -28 8 -62 10 -76 4 -26 6 -44 25 -190 6 -47
13 -98 16 -115 2 -16 6 -46 8 -65 2 -19 12 -91 21 -160 9 -69 18 -141 21 -160
2 -19 6 -48 8 -65 3 -16 12 -86 21 -155 8 -69 22 -170 30 -225 8 -55 17 -127
20 -160 4 -33 8 -67 10 -75 2 -8 7 -40 10 -70 3 -30 8 -66 10 -80 2 -14 6 -43
9 -65 3 -22 10 -76 16 -120 6 -45 13 -99 15 -120 3 -22 7 -53 9 -70 3 -16 10
-68 16 -115 14 -113 20 -159 26 -195 2 -16 6 -46 8 -65 11 -85 37 -288 41
-318 3 -18 8 -54 11 -80 2 -26 7 -58 9 -72 3 -14 9 -61 15 -105 9 -74 13 -100
24 -187 3 -18 7 -55 11 -83 13 -108 25 -195 30 -225 2 -9 6 -41 10 -73 7 -56
7 -56 39 -52 17 2 58 7 91 11 33 4 67 8 75 10 8 1 21 3 28 3 9 1 12 11 8 34
-3 17 -12 88 -21 157 -8 69 -18 142 -21 162 -9 69 -14 103 -19 153 -3 28 -8
57 -10 65 -2 8 -7 44 -10 80 -4 36 -8 67 -10 70 -1 3 -6 36 -10 73 -3 37 -8
76 -10 86 -2 10 -6 42 -10 72 -3 30 -8 65 -10 79 -5 31 -13 89 -20 155 -3 28
-8 61 -10 75 -2 14 -6 45 -10 70 -5 41 -11 84 -20 150 -2 14 -7 50 -10 80 -3
30 -8 66 -10 80 -10 71 -15 110 -21 159 -3 30 -8 63 -10 75 -2 12 -6 44 -9 71
-4 28 -8 61 -10 75 -2 14 -9 63 -15 110 -16 123 -21 162 -25 190 -2 14 -6 50
-10 80 -4 30 -8 66 -10 80 -3 14 -7 43 -10 65 -2 22 -7 56 -10 75 -2 19 -7 58
-11 85 -9 73 -11 87 -28 225 -22 170 -23 179 -41 310 -8 63 -17 130 -20 148
-9 56 -14 96 -20 147 -3 28 -8 64 -10 80 -3 17 -7 46 -9 65 -3 19 -8 57 -12
85 -11 85 -13 98 -19 165 -4 36 -9 67 -10 70 -2 3 -7 32 -10 63 l-7 58 29 -5
c15 -2 57 -8 93 -11 36 -4 72 -8 80 -10 8 -1 42 -6 75 -9 33 -4 71 -9 85 -11
14 -2 52 -6 85 -10 33 -3 67 -7 75 -10 8 -2 47 -6 85 -10 67 -6 169 -18 245
-29 19 -3 76 -10 125 -16 50 -5 108 -12 130 -15 382 -47 377 -47 381 -20 2 11
12 60 23 110 22 96 19 104 -29 106 -14 0 -34 2 -45 4 -11 2 -47 7 -82 10 -34
3 -70 7 -80 9 -10 2 -45 7 -78 10 -33 4 -73 9 -90 11 -16 2 -73 9 -125 15 -52
6 -110 13 -128 16 -18 2 -54 7 -80 10 -94 11 -118 14 -152 19 -19 2 -57 7 -85
10 -27 3 -68 7 -90 10 -114 14 -376 46 -420 51 -27 3 -53 8 -56 10 -4 2 -10
34 -14 71 -4 38 -9 77 -11 88 -2 11 -6 45 -9 75 -7 64 -10 89 -41 305 -2 17
-6 48 -9 70 -5 46 -24 187 -30 230 -2 17 -7 53 -10 80 -4 28 -8 61 -10 75 -2
14 -7 50 -10 80 -3 30 -10 80 -15 110 -5 30 -12 84 -16 120 -3 36 -8 68 -10
72 -2 3 15 9 38 13 24 4 57 9 73 12 17 2 44 6 60 9 33 4 99 14 130 20 11 2 40
7 65 10 25 3 52 7 60 9 8 2 40 7 70 10 30 3 62 8 70 10 8 3 35 7 60 10 24 3
99 14 165 25 66 10 140 22 165 25 25 3 52 8 60 10 8 2 35 6 60 9 57 7 310 45
330 51 8 2 40 6 71 10 31 3 67 8 80 10 26 5 122 21 179 29 47 6 133 20 143 22
4 1 14 2 22 3 15 1 15 26 1 216 0 11 -5 20 -11 20 -13 -1 -136 -16 -155 -20
-8 -2 -35 -6 -60 -9 -25 -4 -85 -13 -135 -21 -49 -8 -110 -16 -135 -20 -25 -3
-70 -10 -100 -15 -99 -17 -114 -19 -159 -25 -23 -3 -55 -7 -70 -10 -34 -5
-355 -54 -401 -60 -31 -5 -99 -15 -286 -45 -33 -6 -81 -12 -106 -15 -25 -3
-56 -8 -69 -10 -76 -15 -240 -37 -244 -33 -2 2 -7 26 -10 54 -3 27 -7 63 -10
79 -11 73 -14 95 -25 185 -6 52 -13 106 -16 120 -2 14 -7 47 -10 73 l-7 48
-41 -5 c-22 -4 -63 -9 -91 -12 -27 -4 -57 -8 -65 -10 -8 -1 -21 -3 -28 -3 -9
-1 -11 -12 -7 -43 10 -70 14 -97 30 -228 23 -177 26 -200 35 -248 9 -51 3 -55
-95 -67 -32 -4 -68 -9 -80 -11 -22 -5 -139 -23 -195 -31 -19 -2 -73 -11 -120
-18 -47 -8 -105 -17 -130 -20 -25 -3 -74 -11 -110 -16 -36 -6 -76 -12 -90 -14
-14 -2 -54 -8 -90 -14 -36 -6 -81 -13 -100 -16 -19 -2 -96 -14 -170 -25 -74
-11 -151 -23 -170 -25 -19 -3 -46 -8 -60 -10 -23 -4 -250 -38 -342 -51 -42 -6
-42 -5 -27 50 6 21 12 46 14 55 2 9 20 79 40 156 20 77 38 149 40 160 2 11 29
117 59 235 30 118 52 217 48 221 -4 3 -50 16 -102 29 -52 13 -101 25 -107 27
-7 3 -15 -1 -18 -9z m1846 -920 c0 -13 2 -32 4 -43 2 -11 6 -40 9 -65 9 -74
26 -203 31 -235 3 -16 7 -51 10 -77 3 -26 10 -80 15 -120 6 -40 13 -95 16
-123 3 -27 7 -61 10 -75 2 -14 6 -45 9 -70 6 -49 23 -175 31 -230 16 -117 33
-254 31 -255 -1 -1 -45 4 -98 10 -52 7 -122 16 -155 19 -32 3 -68 8 -80 10
-11 2 -53 7 -93 11 -40 3 -81 8 -90 10 -10 2 -42 6 -72 10 -30 3 -90 10 -134
16 -44 5 -96 12 -115 14 -19 2 -60 7 -90 10 -30 3 -66 8 -80 10 -14 2 -47 7
-75 10 -71 8 -114 13 -255 30 -69 8 -145 18 -170 21 -25 3 -58 7 -75 9 -16 3
-50 7 -75 10 -25 3 -61 7 -80 9 -51 7 -129 16 -180 21 -25 3 -101 12 -170 21
-69 9 -135 16 -146 16 -20 0 -21 4 -12 42 5 22 13 55 18 71 5 17 11 41 14 55
3 14 23 97 46 185 40 155 46 178 55 220 3 11 15 58 27 105 l23 85 100 17 c55
9 127 19 160 23 33 4 62 8 65 10 3 2 28 6 55 9 28 4 61 9 75 11 14 2 115 18
225 35 110 17 211 32 225 35 14 2 90 13 170 25 80 11 199 29 265 40 66 10 140
21 165 25 25 3 56 8 70 10 32 6 74 12 130 20 65 9 104 16 107 19 1 1 21 3 43
4 36 3 40 0 41 -20z"/>
</g>
</svg>
