<?xml version="1.0" encoding="utf-8"?>
<!-- Generator: Adobe Illustrator 21.0.2, SVG Export Plug-In . SVG Version: 6.00 Build 0)  -->
<svg version="1.1" id="Layer_1" xmlns="http://www.w3.org/2000/svg" xmlns:xlink="http://www.w3.org/1999/xlink" x="0px" y="0px"
	 viewBox="0 0 50 50" style="enable-background:new 0 0 50 50;" xml:space="preserve">
<g>
	<g id="Icon-Pencil" transform="translate(179.000000, 382.000000)">
		<path id="Fill-168" d="M-179-332l4.3-17.2l26.3-26.3l13,13l-26.3,26.3L-179-332L-179-332z M-171.7-347.6l-2.8,11.1l11.1-2.8
			l23.4-23.4l-8.3-8.3L-171.7-347.6L-171.7-347.6z"/>
		<path id="Fill-169" d="M-164.5-337.3c-1.2-4.5-4.6-8-9.1-9.1l0.8-3.2c5.7,1.4,10.1,5.8,11.5,11.5L-164.5-337.3"/>
		<polyline id="Fill-170" points="-164.9,-343.7 -167.2,-346.1 -144.2,-369.2 -141.8,-366.8 -164.9,-343.7 		"/>
		<path id="Fill-171" d="M-176.7-334.3l5.1-1.3c-0.5-1.9-2-3.4-3.8-3.8L-176.7-334.3"/>
		<path id="Fill-172" d="M-134.2-363.8l-13-13l5.2-5.2l0.8,0.1c6.3,0.8,11.2,5.8,12,12l0.1,0.8L-134.2-363.8L-134.2-363.8z
			 M-142.4-376.8l8.3,8.3l1.6-1.6c-0.9-4.2-4.2-7.4-8.3-8.3L-142.4-376.8L-142.4-376.8z"/>
	</g>
</g>
</svg>
