<?xml version="1.0" encoding="utf-8"?>
<!-- Generator: Adobe Illustrator 21.0.2, SVG Export Plug-In . SVG Version: 6.00 Build 0)  -->
<svg version="1.1" id="Слой_1" xmlns="http://www.w3.org/2000/svg" xmlns:xlink="http://www.w3.org/1999/xlink" x="0px" y="0px"
	 viewBox="0 0 50 50" style="enable-background:new 0 0 50 50;" xml:space="preserve">
<style type="text/css">
	.st0{fill:#121313;}
</style>
<g>
	<path class="st0" d="M44.1,23.3c-4.6-5.3-11.6-8.3-20.7-8.5l0-8.8c0-0.6-0.3-1.2-0.9-1.4c-0.5-0.3-1.2-0.2-1.7,0.2L0.6,21.4
		C0.2,21.7,0,22.2,0,22.6c0,0.5,0.2,0.9,0.6,1.2l20.3,16.8c0.5,0.4,1.1,0.5,1.7,0.2c0.5-0.3,0.9-0.8,0.9-1.4l0-9
		c21.9,0,23.4,14,23.5,14.6c0.1,0.8,0.6,1.4,1.4,1.4c0,0,0,0,0.1,0c0.8,0,1.3-0.6,1.5-1.3C49.9,44.6,51.5,32,44.1,23.3z"/>
</g>
</svg>
