<?xml version="1.0" encoding="utf-8"?>
<!-- Generator: Adobe Illustrator 21.0.2, SVG Export Plug-In . SVG Version: 6.00 Build 0)  -->
<svg version="1.1" id="Layer_1" xmlns="http://www.w3.org/2000/svg" xmlns:xlink="http://www.w3.org/1999/xlink" x="0px" y="0px"
	 viewBox="0 0 128 128" style="enable-background:new 0 0 128 128;" xml:space="preserve">
<style type="text/css">
	.st0{fill:#FFFFFF;}
</style>
<path class="st0" d="M120.3,79.7l-11-8.1c0-0.2,0-0.3,0.1-0.5c0-0.1,0-0.1,0-0.2c0.1-0.7,0.2-1.4,0.3-2.1l0-0.1
	c0.1-0.7,0.1-1.5,0.2-2.2c0,0,0-0.1,0-0.1c0-0.7,0.1-1.5,0.1-2.2l0-0.1c0,0,0-0.1,0-0.1c0-0.2,0-0.3,0-0.5v-0.1c0-0.3,0-0.6,0-1
	l0-0.6c0-0.4,0-0.8-0.1-1.2c0,0,0-0.1,0-0.1c0-0.1,0-0.2,0-0.3c0-0.2,0-0.4-0.1-0.6l0-0.1l0-0.1l0-0.3c0-0.1,0-0.3,0-0.4
	c0-0.1,0-0.1,0-0.2l0-0.2c-0.1-0.5-0.1-1.1-0.2-1.6c0,0,0-0.1,0-0.1l11-8.2c2.6-1.5,3.5-4.8,2-7.4l-9.1-15.7c-1.5-2.6-4.8-3.5-7.4-2
	l-12.6,5.4c-0.1-0.1-0.1-0.1-0.2-0.2c0,0-0.1-0.1-0.1-0.1c-0.2-0.1-0.3-0.3-0.5-0.4c-0.2-0.1-0.4-0.3-0.5-0.4
	c-0.1-0.1-0.3-0.2-0.4-0.3c-0.1-0.1-0.1-0.1-0.2-0.2c-0.1-0.1-0.2-0.2-0.4-0.3l-0.2-0.1c-0.2-0.1-0.3-0.2-0.5-0.4L90,26.2
	c-0.1-0.1-0.2-0.1-0.2-0.2c-0.3-0.2-0.5-0.3-0.8-0.5l-0.1-0.1c-0.4-0.3-0.8-0.5-1.3-0.8c-0.1-0.1-0.2-0.1-0.3-0.2
	c-0.9-0.5-1.8-1.1-2.8-1.5c0,0,0,0-0.1,0c-1.2-0.6-2.5-1.2-3.8-1.7l-0.1,0c-0.2-0.1-0.3-0.1-0.5-0.2L78.5,7.4c0-3-2.4-5.4-5.4-5.4
	H54.9c-3,0-5.4,2.4-5.4,5.4L47.9,21c-0.1,0-0.1,0.1-0.2,0.1c-0.1,0-0.2,0.1-0.3,0.1c-0.5,0.2-1,0.4-1.5,0.6c-0.1,0-0.2,0.1-0.3,0.1
	c-0.4,0.2-0.9,0.4-1.3,0.6l-0.1,0.1L44,22.7c-0.2,0.1-0.3,0.2-0.5,0.2c-0.4,0.2-0.7,0.4-1.1,0.6c-0.3,0.1-0.5,0.3-0.8,0.4
	c-0.2,0.1-0.3,0.2-0.5,0.3l0,0c0,0-0.1,0-0.1,0c-0.1,0-0.1,0.1-0.2,0.1c-0.6,0.3-1.2,0.7-1.8,1.1l-0.2,0.1l-0.2,0.1c0,0,0,0-0.1,0
	c-0.5,0.3-1,0.7-1.5,1c-0.1,0-0.1,0.1-0.2,0.1c-0.5,0.4-1.1,0.8-1.6,1.2l-0.3,0.2c-0.1,0.1-0.2,0.2-0.3,0.3l-12.5-5.4
	c-2.6-1.5-5.9-0.6-7.4,2L5.7,40.8c-1.5,2.6-0.6,5.9,2,7.4l11,8.1c0,0.1,0,0.3-0.1,0.4c0,0.2,0,0.3-0.1,0.5c-0.1,0.6-0.2,1.2-0.2,1.9
	l0,0.4c-0.1,0.6-0.1,1.1-0.1,1.7l0,0.1l0,0.1c0,0.1,0,0.2,0,0.4c0,0.6,0,1.3,0,1.9c0,0.1,0,0.2,0,0.3c0,0.1,0,0.2,0,0.3
	c0,0.1,0,0.1,0,0.2c0,0.1,0,0.2,0,0.2c0,0.3,0,0.5,0,0.8c0,0.3,0,0.7,0,1c0,0.3,0,0.6,0,0.8l0,0.1c0,0.1,0,0.3,0,0.4
	c0,0.2,0,0.4,0.1,0.5c0,0.4,0.1,0.8,0.1,1.2c0,0,0,0,0,0c0.1,0.6,0.2,1.2,0.3,1.8c0,0,0,0.1,0,0.1l-11,8.1c-2.6,1.5-3.5,4.8-2,7.4
	l9.1,15.7c1.5,2.6,4.8,3.5,7.4,2l12.5-5.4c0.1,0.1,0.2,0.1,0.3,0.2c0,0,0,0,0,0c0,0,0,0,0,0c0.1,0.1,0.3,0.2,0.4,0.3
	c0.2,0.2,0.4,0.3,0.6,0.5l0.4,0.3c0.2,0.1,0.3,0.3,0.5,0.4l0.1,0c0.1,0.1,0.2,0.1,0.2,0.2c0.2,0.1,0.4,0.3,0.6,0.4c0,0,0,0,0.1,0
	c0.1,0.1,0.2,0.1,0.2,0.2c0.7,0.5,1.4,0.9,2.1,1.4c0.1,0.1,0.3,0.1,0.4,0.2c0.9,0.5,1.8,1,2.7,1.5c0,0,0.1,0,0.1,0
	c1.4,0.7,2.9,1.3,4.4,1.9l1.6,13.6c0,3,2.4,5.4,5.4,5.4h18.2c3,0,5.4-2.4,5.4-5.4l1.6-13.6c0.1,0,0.2-0.1,0.2-0.1
	c0.1,0,0.2-0.1,0.2-0.1c0.5-0.2,1-0.4,1.5-0.6c0.1,0,0.2-0.1,0.3-0.1c0.4-0.2,0.9-0.4,1.3-0.6c0,0,0.1,0,0.1-0.1c0,0,0,0,0,0
	c0,0,0.1,0,0.1-0.1l0.5-0.3c0.4-0.2,0.7-0.4,1.1-0.6c0.3-0.1,0.5-0.3,0.8-0.4c0.1-0.1,0.3-0.2,0.4-0.2l0.1-0.1c0,0,0,0,0.1,0
	c0,0,0.1,0,0.1-0.1c0.6-0.4,1.2-0.7,1.8-1.1c0,0,0.1-0.1,0.1-0.1c0.1-0.1,0.2-0.1,0.3-0.2c0.5-0.3,1-0.7,1.5-1
	c0.1,0,0.1-0.1,0.1-0.1c0.6-0.4,1.1-0.8,1.7-1.3l0.2-0.2c0.1-0.1,0.2-0.2,0.4-0.3l12.5,5.4c2.6,1.5,5.9,0.6,7.4-2l9.1-15.7
	C123.8,84.6,122.9,81.2,120.3,79.7L120.3,79.7z M64,82.9c-10.5,0-18.9-8.5-18.9-18.9S53.5,45.1,64,45.1S82.9,53.5,82.9,64
	S74.5,82.9,64,82.9z"/>
</svg>
